<svg xmlns="http://www.w3.org/2000/svg" viewBox="0 0 120 120" fill="none">
  <defs>
    <linearGradient id="pp-bg" x1="0%" y1="0%" x2="100%" y2="100%">
      <stop offset="0%" style="stop-color:#f472b6"/>
      <stop offset="100%" style="stop-color:#ec4899"/>
    </linearGradient>
    <linearGradient id="pp-accent" x1="0%" y1="0%" x2="100%" y2="100%">
      <stop offset="0%" style="stop-color:#fce7f3"/>
      <stop offset="100%" style="stop-color:#fbcfe8"/>
    </linearGradient>
  </defs>

  <!-- Background -->
  <circle cx="60" cy="60" r="56" fill="url(#pp-bg)" opacity="0.2"/>
  <circle cx="60" cy="60" r="50" fill="url(#pp-bg)"/>

  <!-- Heart Symbol -->
  <path d="M60 85 C40 70 30 55 30 45 C30 35 38 28 48 28 C54 28 58 32 60 36 C62 32 66 28 72 28 C82 28 90 35 90 45 C90 55 80 70 60 85 Z" fill="url(#pp-accent)"/>

  <!-- Heartbeat Line -->
  <path d="M35 50 L48 50 L52 40 L56 60 L60 45 L64 55 L68 50 L85 50" stroke="#ec4899" stroke-width="3" stroke-linecap="round" stroke-linejoin="round" fill="none"/>

  <!-- AI Badge -->
  <circle cx="90" cy="30" r="16" fill="#8b5cf6"/>
  <text x="90" y="35" text-anchor="middle" fill="white" font-family="Arial, sans-serif" font-weight="bold" font-size="12">AI</text>

  <!-- Small Hearts -->
  <circle cx="28" cy="75" r="6" fill="#fce7f3" opacity="0.8"/>
  <circle cx="92" cy="80" r="4" fill="#fce7f3" opacity="0.6"/>
</svg>
