<svg viewBox="0 0 1920 1080" xmlns="http://www.w3.org/2000/svg">
  <defs>
    <linearGradient id="bgGrad5s" x1="0%" y1="0%" x2="100%" y2="100%">
      <stop offset="0%" style="stop-color:#0B0E1F"/>
      <stop offset="100%" style="stop-color:#1a1f3a"/>
    </linearGradient>
  </defs>

  <!-- Background -->
  <rect width="1920" height="1080" fill="url(#bgGrad5s)"/>

  <!-- Header -->
  <text x="960" y="70" font-family="Inter, system-ui, sans-serif" font-size="42" font-weight="700" fill="#ffffff" text-anchor="middle">System Architecture</text>
  <text x="960" y="105" font-family="Inter, system-ui, sans-serif" font-size="18" fill="#9bb5ff" text-anchor="middle">Full-Stack Cross-Platform Design</text>

  <!-- Client Layer -->
  <rect x="120" y="150" width="1680" height="180" rx="16" fill="#1a1f3a" stroke="#667eea" stroke-width="2"/>
  <text x="160" y="185" font-family="Inter, system-ui, sans-serif" font-size="18" fill="#4ade80" font-weight="600">CLIENT LAYER</text>

  <g transform="translate(160, 210)">
    <rect x="0" y="0" width="180" height="90" rx="8" fill="#667eea" opacity="0.3"/>
    <text x="90" y="35" font-family="Inter, system-ui, sans-serif" font-size="16" fill="#ffffff" text-anchor="middle" font-weight="600">React 19</text>
    <text x="90" y="60" font-family="Inter, system-ui, sans-serif" font-size="12" fill="#9bb5ff" text-anchor="middle">TypeScript 5.9</text>
    <text x="90" y="78" font-family="Inter, system-ui, sans-serif" font-size="11" fill="#667eea" text-anchor="middle">UI Framework</text>
  </g>

  <g transform="translate(370, 210)">
    <rect x="0" y="0" width="180" height="90" rx="8" fill="#667eea" opacity="0.3"/>
    <text x="90" y="35" font-family="Inter, system-ui, sans-serif" font-size="16" fill="#ffffff" text-anchor="middle" font-weight="600">Three.js</text>
    <text x="90" y="60" font-family="Inter, system-ui, sans-serif" font-size="12" fill="#9bb5ff" text-anchor="middle">React Three Fiber</text>
    <text x="90" y="78" font-family="Inter, system-ui, sans-serif" font-size="11" fill="#667eea" text-anchor="middle">3D Graphics</text>
  </g>

  <g transform="translate(580, 210)">
    <rect x="0" y="0" width="180" height="90" rx="8" fill="#667eea" opacity="0.3"/>
    <text x="90" y="35" font-family="Inter, system-ui, sans-serif" font-size="16" fill="#ffffff" text-anchor="middle" font-weight="600">Radix UI</text>
    <text x="90" y="60" font-family="Inter, system-ui, sans-serif" font-size="12" fill="#9bb5ff" text-anchor="middle">Tailwind CSS</text>
    <text x="90" y="78" font-family="Inter, system-ui, sans-serif" font-size="11" fill="#667eea" text-anchor="middle">Component Library</text>
  </g>

  <g transform="translate(790, 210)">
    <rect x="0" y="0" width="180" height="90" rx="8" fill="#667eea" opacity="0.3"/>
    <text x="90" y="35" font-family="Inter, system-ui, sans-serif" font-size="16" fill="#ffffff" text-anchor="middle" font-weight="600">Zustand</text>
    <text x="90" y="60" font-family="Inter, system-ui, sans-serif" font-size="12" fill="#9bb5ff" text-anchor="middle">TanStack Query</text>
    <text x="90" y="78" font-family="Inter, system-ui, sans-serif" font-size="11" fill="#667eea" text-anchor="middle">State Management</text>
  </g>

  <g transform="translate(1000, 210)">
    <rect x="0" y="0" width="180" height="90" rx="8" fill="#667eea" opacity="0.3"/>
    <text x="90" y="35" font-family="Inter, system-ui, sans-serif" font-size="16" fill="#ffffff" text-anchor="middle" font-weight="600">Recharts</text>
    <text x="90" y="60" font-family="Inter, system-ui, sans-serif" font-size="12" fill="#9bb5ff" text-anchor="middle">Framer Motion</text>
    <text x="90" y="78" font-family="Inter, system-ui, sans-serif" font-size="11" fill="#667eea" text-anchor="middle">Data Visualization</text>
  </g>

  <g transform="translate(1210, 210)">
    <rect x="0" y="0" width="180" height="90" rx="8" fill="#667eea" opacity="0.3"/>
    <text x="90" y="35" font-family="Inter, system-ui, sans-serif" font-size="16" fill="#ffffff" text-anchor="middle" font-weight="600">React Hook Form</text>
    <text x="90" y="60" font-family="Inter, system-ui, sans-serif" font-size="12" fill="#9bb5ff" text-anchor="middle">Zod Validation</text>
    <text x="90" y="78" font-family="Inter, system-ui, sans-serif" font-size="11" fill="#667eea" text-anchor="middle">Forms & Validation</text>
  </g>

  <g transform="translate(1420, 210)">
    <rect x="0" y="0" width="180" height="90" rx="8" fill="#667eea" opacity="0.3"/>
    <text x="90" y="35" font-family="Inter, system-ui, sans-serif" font-size="16" fill="#ffffff" text-anchor="middle" font-weight="600">Vite 7</text>
    <text x="90" y="60" font-family="Inter, system-ui, sans-serif" font-size="12" fill="#9bb5ff" text-anchor="middle">Zero Warnings</text>
    <text x="90" y="78" font-family="Inter, system-ui, sans-serif" font-size="11" fill="#667eea" text-anchor="middle">Build Tool</text>
  </g>

  <line x1="960" y1="330" x2="960" y2="380" stroke="#667eea" stroke-width="3"/>
  <polygon points="952,375 960,390 968,375" fill="#667eea"/>

  <!-- Mobile Layer -->
  <rect x="120" y="390" width="1680" height="130" rx="16" fill="#1a1f3a" stroke="#4ade80" stroke-width="2"/>
  <text x="160" y="425" font-family="Inter, system-ui, sans-serif" font-size="18" fill="#4ade80" font-weight="600">MOBILE LAYER (Capacitor 8)</text>

  <g transform="translate(160, 450)">
    <rect x="0" y="0" width="200" height="50" rx="8" fill="#4ade80" opacity="0.2"/>
    <text x="100" y="32" font-family="Inter, system-ui, sans-serif" font-size="14" fill="#4ade80" text-anchor="middle">19 Native Plugins</text>
  </g>

  <g transform="translate(400, 450)">
    <rect x="0" y="0" width="200" height="50" rx="8" fill="#4ade80" opacity="0.2"/>
    <text x="100" y="32" font-family="Inter, system-ui, sans-serif" font-size="14" fill="#4ade80" text-anchor="middle">876-line Service</text>
  </g>

  <g transform="translate(640, 450)">
    <rect x="0" y="0" width="200" height="50" rx="8" fill="#4ade80" opacity="0.2"/>
    <text x="100" y="32" font-family="Inter, system-ui, sans-serif" font-size="14" fill="#4ade80" text-anchor="middle">554-line Hooks</text>
  </g>

  <g transform="translate(880, 450)">
    <rect x="0" y="0" width="130" height="50" rx="8" fill="#4ade80" opacity="0.2"/>
    <text x="65" y="32" font-family="Inter, system-ui, sans-serif" font-size="14" fill="#4ade80" text-anchor="middle">iOS</text>
  </g>

  <g transform="translate(1040, 450)">
    <rect x="0" y="0" width="130" height="50" rx="8" fill="#4ade80" opacity="0.2"/>
    <text x="65" y="32" font-family="Inter, system-ui, sans-serif" font-size="14" fill="#4ade80" text-anchor="middle">Android</text>
  </g>

  <g transform="translate(1200, 450)">
    <rect x="0" y="0" width="130" height="50" rx="8" fill="#4ade80" opacity="0.2"/>
    <text x="65" y="32" font-family="Inter, system-ui, sans-serif" font-size="14" fill="#4ade80" text-anchor="middle">PWA</text>
  </g>

  <line x1="960" y1="520" x2="960" y2="570" stroke="#667eea" stroke-width="3"/>
  <polygon points="952,565 960,580 968,565" fill="#667eea"/>

  <!-- Backend Services Layer -->
  <rect x="120" y="580" width="1680" height="180" rx="16" fill="#1a1f3a" stroke="#764ba2" stroke-width="2"/>
  <text x="160" y="615" font-family="Inter, system-ui, sans-serif" font-size="18" fill="#764ba2" font-weight="600">BACKEND SERVICES</text>

  <g transform="translate(160, 640)">
    <rect x="0" y="0" width="240" height="100" rx="8" fill="#764ba2" opacity="0.3"/>
    <text x="120" y="35" font-family="Inter, system-ui, sans-serif" font-size="16" fill="#ffffff" text-anchor="middle" font-weight="600">Firebase</text>
    <text x="120" y="58" font-family="Inter, system-ui, sans-serif" font-size="12" fill="#9bb5ff" text-anchor="middle">Auth | Firestore</text>
    <text x="120" y="78" font-family="Inter, system-ui, sans-serif" font-size="12" fill="#9bb5ff" text-anchor="middle">Hosting | Analytics</text>
  </g>

  <g transform="translate(440, 640)">
    <rect x="0" y="0" width="240" height="100" rx="8" fill="#764ba2" opacity="0.3"/>
    <text x="120" y="35" font-family="Inter, system-ui, sans-serif" font-size="16" fill="#ffffff" text-anchor="middle" font-weight="600">FilesHub</text>
    <text x="120" y="58" font-family="Inter, system-ui, sans-serif" font-size="12" fill="#9bb5ff" text-anchor="middle">File Storage API</text>
    <text x="120" y="78" font-family="Inter, system-ui, sans-serif" font-size="12" fill="#9bb5ff" text-anchor="middle">Upload | Download</text>
  </g>

  <g transform="translate(720, 640)">
    <rect x="0" y="0" width="240" height="100" rx="8" fill="#764ba2" opacity="0.3"/>
    <text x="120" y="35" font-family="Inter, system-ui, sans-serif" font-size="16" fill="#ffffff" text-anchor="middle" font-weight="600">OneSignal</text>
    <text x="120" y="58" font-family="Inter, system-ui, sans-serif" font-size="12" fill="#9bb5ff" text-anchor="middle">Push Notifications</text>
    <text x="120" y="78" font-family="Inter, system-ui, sans-serif" font-size="12" fill="#9bb5ff" text-anchor="middle">Web | iOS | Android</text>
  </g>

  <g transform="translate(1000, 640)">
    <rect x="0" y="0" width="240" height="100" rx="8" fill="#764ba2" opacity="0.3"/>
    <text x="120" y="35" font-family="Inter, system-ui, sans-serif" font-size="16" fill="#ffffff" text-anchor="middle" font-weight="600">NASA APIs</text>
    <text x="120" y="58" font-family="Inter, system-ui, sans-serif" font-size="12" fill="#9bb5ff" text-anchor="middle">Exoplanet Archive</text>
    <text x="120" y="78" font-family="Inter, system-ui, sans-serif" font-size="12" fill="#9bb5ff" text-anchor="middle">TESS | Kepler Data</text>
  </g>

  <g transform="translate(1280, 640)">
    <rect x="0" y="0" width="240" height="100" rx="8" fill="#764ba2" opacity="0.3"/>
    <text x="120" y="35" font-family="Inter, system-ui, sans-serif" font-size="16" fill="#ffffff" text-anchor="middle" font-weight="600">Sentry</text>
    <text x="120" y="58" font-family="Inter, system-ui, sans-serif" font-size="12" fill="#9bb5ff" text-anchor="middle">Error Tracking</text>
    <text x="120" y="78" font-family="Inter, system-ui, sans-serif" font-size="12" fill="#9bb5ff" text-anchor="middle">Performance Monitor</text>
  </g>

  <!-- Analytics Layer -->
  <rect x="120" y="790" width="1680" height="100" rx="16" fill="#1a1f3a" stroke="#FFD700" stroke-width="2"/>
  <text x="160" y="825" font-family="Inter, system-ui, sans-serif" font-size="18" fill="#FFD700" font-weight="600">ANALYTICS LAYER (Triple Integration)</text>

  <g transform="translate(500, 840)">
    <rect x="0" y="0" width="200" height="40" rx="8" fill="#FFD700" opacity="0.2"/>
    <text x="100" y="27" font-family="Inter, system-ui, sans-serif" font-size="14" fill="#FFD700" text-anchor="middle">Firebase Analytics</text>
  </g>

  <g transform="translate(750, 840)">
    <rect x="0" y="0" width="200" height="40" rx="8" fill="#FFD700" opacity="0.2"/>
    <text x="100" y="27" font-family="Inter, system-ui, sans-serif" font-size="14" fill="#FFD700" text-anchor="middle">Amplitude</text>
  </g>

  <g transform="translate(1000, 840)">
    <rect x="0" y="0" width="200" height="40" rx="8" fill="#FFD700" opacity="0.2"/>
    <text x="100" y="27" font-family="Inter, system-ui, sans-serif" font-size="14" fill="#FFD700" text-anchor="middle">Microsoft Clarity</text>
  </g>

  <!-- Footer (Upwork Safe) -->
  <rect x="0" y="940" width="1920" height="140" fill="#0B0E1F"/>
  <line x1="0" y1="940" x2="1920" y2="940" stroke="#667eea" stroke-width="2"/>

  <text x="160" y="1000" font-family="Inter, system-ui, sans-serif" font-size="14" fill="#9bb5ff">Live Demo:</text>
  <text x="260" y="1000" font-family="Inter, system-ui, sans-serif" font-size="14" fill="#4ade80">https://exohunter-ai.web.app</text>

  <text x="700" y="1000" font-family="Inter, system-ui, sans-serif" font-size="14" fill="#9bb5ff">Portfolio Hub:</text>
  <text x="820" y="1000" font-family="Inter, system-ui, sans-serif" font-size="14" fill="#4ade80">https://aoneahsan.com/projects</text>

  <text x="1500" y="1000" font-family="Inter, system-ui, sans-serif" font-size="18" fill="#ffffff" font-weight="600">Ahsan Mahmood</text>
  <text x="1500" y="1025" font-family="Inter, system-ui, sans-serif" font-size="13" fill="#9bb5ff">Full-Stack Engineer</text>
</svg>