<svg viewBox="0 0 1920 1080" xmlns="http://www.w3.org/2000/svg">
  <defs>
    <linearGradient id="bgGrad8" x1="0%" y1="0%" x2="100%" y2="100%">
      <stop offset="0%" style="stop-color:#0B0E1F"/>
      <stop offset="100%" style="stop-color:#1a1f3a"/>
    </linearGradient>
    <linearGradient id="purpleGrad8" x1="0%" y1="0%" x2="100%" y2="0%">
      <stop offset="0%" style="stop-color:#667eea"/>
      <stop offset="100%" style="stop-color:#764ba2"/>
    </linearGradient>
  </defs>

  <!-- Background -->
  <rect width="1920" height="1080" fill="url(#bgGrad8)"/>

  <!-- Header -->
  <text x="960" y="70" font-family="Inter, system-ui, sans-serif" font-size="42" font-weight="700" fill="#ffffff" text-anchor="middle">Cross-Platform Mobile</text>
  <text x="960" y="105" font-family="Inter, system-ui, sans-serif" font-size="18" fill="#9bb5ff" text-anchor="middle">Capacitor 8 - One Codebase, All Platforms</text>

  <!-- Phone Mockups -->
  <!-- Phone 1 - Dashboard -->
  <g transform="translate(240, 160)">
    <rect x="0" y="0" width="280" height="560" rx="30" fill="#1a1f3a" stroke="#667eea" stroke-width="3"/>
    <rect x="90" y="15" width="100" height="8" rx="4" fill="#667eea" opacity="0.5"/>
    <rect x="15" y="40" width="250" height="480" rx="8" fill="#0B0E1F"/>

    <!-- Dashboard Content -->
    <text x="140" y="80" font-family="Inter, system-ui, sans-serif" font-size="14" fill="#ffffff" text-anchor="middle" font-weight="600">Dashboard</text>

    <!-- Stats Cards -->
    <rect x="25" y="100" width="110" height="60" rx="6" fill="#667eea" opacity="0.3"/>
    <text x="80" y="125" font-family="Inter, system-ui, sans-serif" font-size="10" fill="#9bb5ff" text-anchor="middle">Detections</text>
    <text x="80" y="145" font-family="Inter, system-ui, sans-serif" font-size="18" fill="#4ade80" text-anchor="middle">247</text>

    <rect x="145" y="100" width="110" height="60" rx="6" fill="#667eea" opacity="0.3"/>
    <text x="200" y="125" font-family="Inter, system-ui, sans-serif" font-size="10" fill="#9bb5ff" text-anchor="middle">Accuracy</text>
    <text x="200" y="145" font-family="Inter, system-ui, sans-serif" font-size="18" fill="#667eea" text-anchor="middle">94%</text>

    <!-- Chart Mock -->
    <rect x="25" y="175" width="230" height="100" rx="6" fill="#667eea" opacity="0.1"/>
    <rect x="40" y="240" width="20" height="25" rx="3" fill="#667eea"/>
    <rect x="70" y="230" width="20" height="35" rx="3" fill="#667eea"/>
    <rect x="100" y="215" width="20" height="50" rx="3" fill="#4ade80"/>
    <rect x="130" y="225" width="20" height="40" rx="3" fill="#667eea"/>
    <rect x="160" y="235" width="20" height="30" rx="3" fill="#667eea"/>
    <rect x="190" y="240" width="20" height="25" rx="3" fill="#667eea"/>

    <!-- Quick Actions -->
    <rect x="25" y="290" width="230" height="40" rx="8" fill="url(#purpleGrad8)"/>
    <text x="140" y="315" font-family="Inter, system-ui, sans-serif" font-size="12" fill="#ffffff" text-anchor="middle">Start Analysis</text>

    <!-- Nav Bar -->
    <rect x="25" y="470" width="230" height="40" rx="8" fill="#1a1f3a"/>
    <text x="65" y="495" font-family="Inter, system-ui, sans-serif" font-size="10" fill="#667eea" text-anchor="middle">Home</text>
    <text x="140" y="495" font-family="Inter, system-ui, sans-serif" font-size="10" fill="#9bb5ff" text-anchor="middle">Explore</text>
    <text x="215" y="495" font-family="Inter, system-ui, sans-serif" font-size="10" fill="#9bb5ff" text-anchor="middle">Profile</text>

    <text x="140" y="590" font-family="Inter, system-ui, sans-serif" font-size="14" fill="#4ade80" text-anchor="middle" font-weight="600">PWA / Web</text>
  </g>

  <!-- Phone 2 - Explorer -->
  <g transform="translate(600, 160)">
    <rect x="0" y="0" width="280" height="560" rx="30" fill="#1a1f3a" stroke="#4ade80" stroke-width="3"/>
    <rect x="90" y="15" width="100" height="8" rx="4" fill="#4ade80" opacity="0.5"/>
    <rect x="15" y="40" width="250" height="480" rx="8" fill="#0B0E1F"/>

    <!-- Explorer Content -->
    <text x="140" y="80" font-family="Inter, system-ui, sans-serif" font-size="14" fill="#ffffff" text-anchor="middle" font-weight="600">Explorer</text>

    <!-- Light Curve Chart -->
    <rect x="25" y="95" width="230" height="150" rx="6" fill="#667eea" opacity="0.1"/>
    <path d="M40,200 Q80,180 120,190 T200,170 T240,200" fill="none" stroke="#4ade80" stroke-width="2"/>
    <circle cx="140" cy="185" r="5" fill="#E54B4B"/>
    <text x="140" y="110" font-family="Inter, system-ui, sans-serif" font-size="10" fill="#9bb5ff" text-anchor="middle">Light Curve Analysis</text>

    <!-- Detection Result -->
    <rect x="25" y="260" width="230" height="80" rx="6" fill="#4ade80" opacity="0.15"/>
    <text x="140" y="285" font-family="Inter, system-ui, sans-serif" font-size="12" fill="#4ade80" text-anchor="middle" font-weight="600">Planet Detected!</text>
    <text x="140" y="305" font-family="Inter, system-ui, sans-serif" font-size="11" fill="#9bb5ff" text-anchor="middle">Confidence: 94.2%</text>
    <text x="140" y="325" font-family="Inter, system-ui, sans-serif" font-size="10" fill="#9bb5ff" text-anchor="middle">Period: 4.3 days</text>

    <!-- Actions -->
    <rect x="25" y="355" width="105" height="35" rx="6" fill="#667eea"/>
    <text x="77" y="378" font-family="Inter, system-ui, sans-serif" font-size="11" fill="#ffffff" text-anchor="middle">Save</text>
    <rect x="145" y="355" width="110" height="35" rx="6" fill="#764ba2"/>
    <text x="200" y="378" font-family="Inter, system-ui, sans-serif" font-size="11" fill="#ffffff" text-anchor="middle">Share</text>

    <!-- Nav Bar -->
    <rect x="25" y="470" width="230" height="40" rx="8" fill="#1a1f3a"/>
    <text x="65" y="495" font-family="Inter, system-ui, sans-serif" font-size="10" fill="#9bb5ff" text-anchor="middle">Home</text>
    <text x="140" y="495" font-family="Inter, system-ui, sans-serif" font-size="10" fill="#4ade80" text-anchor="middle">Explore</text>
    <text x="215" y="495" font-family="Inter, system-ui, sans-serif" font-size="10" fill="#9bb5ff" text-anchor="middle">Profile</text>

    <text x="140" y="590" font-family="Inter, system-ui, sans-serif" font-size="14" fill="#4ade80" text-anchor="middle" font-weight="600">iOS</text>
  </g>

  <!-- Phone 3 - Learn -->
  <g transform="translate(960, 160)">
    <rect x="0" y="0" width="280" height="560" rx="30" fill="#1a1f3a" stroke="#764ba2" stroke-width="3"/>
    <rect x="90" y="15" width="100" height="8" rx="4" fill="#764ba2" opacity="0.5"/>
    <rect x="15" y="40" width="250" height="480" rx="8" fill="#0B0E1F"/>

    <!-- Learn Content -->
    <text x="140" y="80" font-family="Inter, system-ui, sans-serif" font-size="14" fill="#ffffff" text-anchor="middle" font-weight="600">Learning Hub</text>

    <!-- Tutorial Cards -->
    <rect x="25" y="95" width="230" height="70" rx="6" fill="#667eea" opacity="0.2"/>
    <text x="40" y="120" font-family="Inter, system-ui, sans-serif" font-size="11" fill="#ffffff" font-weight="600">Transit Method</text>
    <text x="40" y="140" font-family="Inter, system-ui, sans-serif" font-size="10" fill="#9bb5ff">25 min • Beginner</text>
    <rect x="200" y="110" width="40" height="25" rx="5" fill="#4ade80" opacity="0.3"/>
    <text x="220" y="128" font-family="Inter, system-ui, sans-serif" font-size="10" fill="#4ade80" text-anchor="middle">Done</text>

    <rect x="25" y="175" width="230" height="70" rx="6" fill="#667eea" opacity="0.2"/>
    <text x="40" y="200" font-family="Inter, system-ui, sans-serif" font-size="11" fill="#ffffff" font-weight="600">Light Curves</text>
    <text x="40" y="220" font-family="Inter, system-ui, sans-serif" font-size="10" fill="#9bb5ff">30 min • Intermediate</text>
    <rect x="180" y="195" width="60" height="25" rx="5" fill="#667eea" opacity="0.5"/>
    <text x="210" y="213" font-family="Inter, system-ui, sans-serif" font-size="10" fill="#667eea" text-anchor="middle">In Progress</text>

    <rect x="25" y="255" width="230" height="70" rx="6" fill="#667eea" opacity="0.2"/>
    <text x="40" y="280" font-family="Inter, system-ui, sans-serif" font-size="11" fill="#ffffff" font-weight="600">AI Detection</text>
    <text x="40" y="300" font-family="Inter, system-ui, sans-serif" font-size="10" fill="#9bb5ff">35 min • Advanced</text>

    <!-- Progress -->
    <rect x="25" y="340" width="230" height="50" rx="6" fill="#1a1f3a"/>
    <text x="40" y="360" font-family="Inter, system-ui, sans-serif" font-size="10" fill="#9bb5ff">Overall Progress</text>
    <rect x="40" y="370" width="200" height="8" rx="4" fill="#667eea" opacity="0.3"/>
    <rect x="40" y="370" width="120" height="8" rx="4" fill="#764ba2"/>
    <text x="230" y="360" font-family="Inter, system-ui, sans-serif" font-size="10" fill="#764ba2">60%</text>

    <!-- Nav Bar -->
    <rect x="25" y="470" width="230" height="40" rx="8" fill="#1a1f3a"/>
    <text x="65" y="495" font-family="Inter, system-ui, sans-serif" font-size="10" fill="#9bb5ff" text-anchor="middle">Home</text>
    <text x="140" y="495" font-family="Inter, system-ui, sans-serif" font-size="10" fill="#9bb5ff" text-anchor="middle">Explore</text>
    <text x="215" y="495" font-family="Inter, system-ui, sans-serif" font-size="10" fill="#764ba2" text-anchor="middle">Learn</text>

    <text x="140" y="590" font-family="Inter, system-ui, sans-serif" font-size="14" fill="#764ba2" text-anchor="middle" font-weight="600">Android</text>
  </g>

  <!-- Capacitor Plugins Info -->
  <g transform="translate(1320, 180)">
    <rect x="0" y="0" width="480" height="520" rx="16" fill="#1a1f3a" stroke="#667eea" stroke-width="2"/>
    <text x="240" y="45" font-family="Inter, system-ui, sans-serif" font-size="22" fill="#ffffff" text-anchor="middle" font-weight="600">19 Native Plugins</text>
    <text x="240" y="75" font-family="Inter, system-ui, sans-serif" font-size="14" fill="#9bb5ff" text-anchor="middle">Capacitor 8 Integration</text>

    <!-- Plugin List -->
    <g transform="translate(30, 100)">
      <rect x="0" y="0" width="200" height="30" rx="5" fill="#667eea" opacity="0.2"/>
      <text x="100" y="20" font-family="Inter, system-ui, sans-serif" font-size="11" fill="#4ade80" text-anchor="middle">App State</text>

      <rect x="220" y="0" width="200" height="30" rx="5" fill="#667eea" opacity="0.2"/>
      <text x="320" y="20" font-family="Inter, system-ui, sans-serif" font-size="11" fill="#4ade80" text-anchor="middle">Device Info</text>

      <rect x="0" y="45" width="200" height="30" rx="5" fill="#667eea" opacity="0.2"/>
      <text x="100" y="65" font-family="Inter, system-ui, sans-serif" font-size="11" fill="#4ade80" text-anchor="middle">Network Status</text>

      <rect x="220" y="45" width="200" height="30" rx="5" fill="#667eea" opacity="0.2"/>
      <text x="320" y="65" font-family="Inter, system-ui, sans-serif" font-size="11" fill="#4ade80" text-anchor="middle">Clipboard</text>

      <rect x="0" y="90" width="200" height="30" rx="5" fill="#667eea" opacity="0.2"/>
      <text x="100" y="110" font-family="Inter, system-ui, sans-serif" font-size="11" fill="#4ade80" text-anchor="middle">Haptics</text>

      <rect x="220" y="90" width="200" height="30" rx="5" fill="#667eea" opacity="0.2"/>
      <text x="320" y="110" font-family="Inter, system-ui, sans-serif" font-size="11" fill="#4ade80" text-anchor="middle">Share</text>

      <rect x="0" y="135" width="200" height="30" rx="5" fill="#667eea" opacity="0.2"/>
      <text x="100" y="155" font-family="Inter, system-ui, sans-serif" font-size="11" fill="#4ade80" text-anchor="middle">Browser</text>

      <rect x="220" y="135" width="200" height="30" rx="5" fill="#667eea" opacity="0.2"/>
      <text x="320" y="155" font-family="Inter, system-ui, sans-serif" font-size="11" fill="#4ade80" text-anchor="middle">Toast</text>

      <rect x="0" y="180" width="200" height="30" rx="5" fill="#667eea" opacity="0.2"/>
      <text x="100" y="200" font-family="Inter, system-ui, sans-serif" font-size="11" fill="#4ade80" text-anchor="middle">Preferences</text>

      <rect x="220" y="180" width="200" height="30" rx="5" fill="#667eea" opacity="0.2"/>
      <text x="320" y="200" font-family="Inter, system-ui, sans-serif" font-size="11" fill="#4ade80" text-anchor="middle">Dialog</text>

      <rect x="0" y="225" width="200" height="30" rx="5" fill="#667eea" opacity="0.2"/>
      <text x="100" y="245" font-family="Inter, system-ui, sans-serif" font-size="11" fill="#4ade80" text-anchor="middle">App Review</text>

      <rect x="220" y="225" width="200" height="30" rx="5" fill="#667eea" opacity="0.2"/>
      <text x="320" y="245" font-family="Inter, system-ui, sans-serif" font-size="11" fill="#4ade80" text-anchor="middle">App Update</text>
    </g>

    <!-- Service Stats -->
    <rect x="30" y="380" width="420" height="120" rx="8" fill="#0B0E1F"/>
    <text x="240" y="415" font-family="Inter, system-ui, sans-serif" font-size="14" fill="#ffffff" text-anchor="middle" font-weight="600">Service Layer</text>
    <text x="120" y="455" font-family="Inter, system-ui, sans-serif" font-size="28" fill="#4ade80" text-anchor="middle" font-weight="700">876</text>
    <text x="120" y="480" font-family="Inter, system-ui, sans-serif" font-size="12" fill="#9bb5ff" text-anchor="middle">Lines of Code</text>
    <text x="360" y="455" font-family="Inter, system-ui, sans-serif" font-size="28" fill="#667eea" text-anchor="middle" font-weight="700">554</text>
    <text x="360" y="480" font-family="Inter, system-ui, sans-serif" font-size="12" fill="#9bb5ff" text-anchor="middle">Hook Lines</text>
  </g>

  <!-- Footer -->
  <rect x="0" y="940" width="1920" height="140" fill="#0B0E1F"/>
  <line x1="0" y1="940" x2="1920" y2="940" stroke="#667eea" stroke-width="2"/>

  <text x="160" y="985" font-family="Inter, system-ui, sans-serif" font-size="14" fill="#9bb5ff">Live Demo:</text>
  <text x="260" y="985" font-family="Inter, system-ui, sans-serif" font-size="14" fill="#4ade80">https://exohunter-ai.web.app</text>

  <text x="160" y="1015" font-family="Inter, system-ui, sans-serif" font-size="14" fill="#9bb5ff">Portfolio:</text>
  <text x="250" y="1015" font-family="Inter, system-ui, sans-serif" font-size="14" fill="#4ade80">https://aoneahsan.com/projects</text>

  <text x="960" y="985" font-family="Inter, system-ui, sans-serif" font-size="14" fill="#9bb5ff">Email:</text>
  <text x="1020" y="985" font-family="Inter, system-ui, sans-serif" font-size="14" fill="#ffffff">aoneahsan@gmail.com</text>

  <text x="960" y="1015" font-family="Inter, system-ui, sans-serif" font-size="14" fill="#9bb5ff">WhatsApp:</text>
  <text x="1055" y="1015" font-family="Inter, system-ui, sans-serif" font-size="14" fill="#ffffff">+923046619706</text>

  <text x="1500" y="1000" font-family="Inter, system-ui, sans-serif" font-size="18" fill="#ffffff" font-weight="600">Ahsan Mahmood</text>
  <text x="1500" y="1025" font-family="Inter, system-ui, sans-serif" font-size="13" fill="#9bb5ff">Full-Stack Engineer</text>
</svg>